<?xml version="1.0" standalone="no"?><!DOCTYPE svg PUBLIC "-//W3C//DTD SVG 1.1//EN" "http://www.w3.org/Graphics/SVG/1.1/DTD/svg11.dtd"><svg t="1781688184392" class="icon" viewBox="0 0 1024 1024" version="1.1" xmlns="http://www.w3.org/2000/svg" p-id="6110" xmlns:xlink="http://www.w3.org/1999/xlink" width="200" height="200"><path d="M710.69 411.79H313.62c-21.03 0-38.08-17.05-38.08-38.08V201.75c0-63.52 51.68-115.2 115.2-115.2h242.83c63.52 0 115.21 51.68 115.21 115.2v171.96c-0.01 21.03-17.06 38.08-38.09 38.08zM351.7 335.63h320.91V201.75c0-21.53-17.51-39.04-39.04-39.04H390.74c-21.53 0-39.04 17.51-39.04 39.04v133.88z" fill="#F8DC7A" p-id="6111"></path><path d="M822.21 937.54H202.1c-60.44 0-109.43-48.99-109.43-109.43V358.07c0-60.44 48.99-109.43 109.43-109.43h620.11c60.44 0 109.43 48.99 109.43 109.43V828.1c0 60.44-49 109.44-109.43 109.44z" fill="#F7A02E" p-id="6112"></path><path d="M512.15 703.44c-42.41 0-82.26-16.5-112.22-46.45-29.95-29.95-46.45-69.81-46.45-112.22v-51.21c0-21.03 17.05-38.08 38.08-38.08 21.03 0 38.08 17.05 38.08 38.08v51.21c0 45.49 37.01 82.5 82.5 82.5s82.5-37.01 82.5-82.5v-51.21c0-21.03 17.05-38.08 38.08-38.08s38.08 17.05 38.08 38.08v51.21c0.02 87.49-71.16 158.67-158.65 158.67z" fill="#F8DC7A" p-id="6113"></path><path d="M92.67 455.48h838.97v76.16H92.67z" fill="#FBE6A6" p-id="6114"></path></svg>