<?xml version="1.0" standalone="no"?><!DOCTYPE svg PUBLIC "-//W3C//DTD SVG 1.1//EN" "http://www.w3.org/Graphics/SVG/1.1/DTD/svg11.dtd"><svg t="1781688431816" class="icon" viewBox="0 0 1024 1024" version="1.1" xmlns="http://www.w3.org/2000/svg" p-id="16081" xmlns:xlink="http://www.w3.org/1999/xlink" width="200" height="200"><path d="M384.128 583.68h-1.024a27.008 27.008 0 0 1-25.984-27.968c4.16-108.608 96.64-138.432 100.608-139.648a26.944 26.944 0 0 1 16.064 51.52c-2.816 0.96-60.096 20.672-62.72 90.24a27.008 27.008 0 0 1-26.944 25.92z" p-id="16082" data-spm-anchor-id="a313x.search_index.0.i15.30ad3a81wrmXAw" class="selected" fill="#2c2c2c"></path><path d="M513.344 260.672a27.008 27.008 0 0 1-27.008-27.008V164.736a27.008 27.008 0 0 1 54.016 0v68.928a27.008 27.008 0 0 1-27.008 27.008z m332.672 572.16h-70.656V561.664a262.208 262.208 0 0 0-261.952-261.952 262.208 262.208 0 0 0-262.016 261.952v271.168H175.04a27.008 27.008 0 0 0 0 54.016h670.912a27.008 27.008 0 0 0 0-54.016z m-540.608 0V561.664a208.192 208.192 0 0 1 208-207.936 208.192 208.192 0 0 1 207.872 208v271.104H305.408z m28.096-515.2a27.008 27.008 0 0 1-22.592-12.16l-42.368-64.384a27.008 27.008 0 0 1 45.056-29.76l42.432 64.448a27.008 27.008 0 0 1-22.528 41.856zM208.96 458.112a26.688 26.688 0 0 1-11.712-2.688l-69.376-33.6a27.008 27.008 0 1 1 23.552-48.64l69.376 33.664a27.008 27.008 0 0 1-11.84 51.264z m480.768-140.48a26.752 26.752 0 0 1-22.336-11.84 26.88 26.88 0 0 1-0.192-30.016l42.432-64.384a26.88 26.88 0 0 1 44.864-0.32 26.88 26.88 0 0 1 0.192 30.08l-42.368 64.32a27.072 27.072 0 0 1-22.592 12.16z m124.544 140.48a27.008 27.008 0 0 1-11.84-51.264l69.376-33.6a27.072 27.072 0 0 1 23.616 48.576l-69.376 33.6a27.84 27.84 0 0 1-11.776 2.688z" p-id="16083" data-spm-anchor-id="a313x.search_index.0.i14.30ad3a81wrmXAw" class="selected" fill="#2c2c2c"></path></svg>