<?xml version="1.0" standalone="no"?><!DOCTYPE svg PUBLIC "-//W3C//DTD SVG 1.1//EN" "http://www.w3.org/Graphics/SVG/1.1/DTD/svg11.dtd"><svg t="1781690460881" class="icon" viewBox="0 0 1024 1024" version="1.1" xmlns="http://www.w3.org/2000/svg" p-id="5984" xmlns:xlink="http://www.w3.org/1999/xlink" width="200" height="200"><path d="M969.637 398.354c-7.989-23.067-28.434-39.897-53.083-43.594l-239.908-35.686L572.32 102.526c-10.957-22.763-34.442-37.322-60.304-37.322-25.77 0-49.26 14.559-60.257 37.322l-104.32 216.55-239.955 35.685c-24.652 3.696-45.092 20.527-53.081 43.594-7.95 23.06-1.935 48.487 15.502 65.838L245.69 639.856l-40.801 243.56c-4.079 24.526 6.53 49.171 27.36 63.524 11.467 7.904 24.91 11.857 38.352 11.857a68.233 68.233 0 0 0 32.211-8.08l209.16-112.653 209.25 112.653c10.043 5.406 21.127 8.08 32.165 8.08 13.443 0 26.885-4 38.398-11.857 20.785-14.353 31.389-38.957 27.268-63.525L778.3 639.855l175.914-175.663c17.35-17.351 23.28-42.776 15.423-65.838z m-227.07 194.989l-29.29 29.242 6.786 40.806 40.755 243.09-210.747-113.385-38.096-20.532-38.094 20.532-210.793 113.425 40.762-243.13 6.826-40.806-29.288-29.242-174.374-174.028 287.273-42.682 117.688-255.68 105.227 218.26 18.506 38.316 42.049 6.267 239.176 35.52-174.365 174.027z m0 0" p-id="5985" fill="#2c2c2c"></path></svg>